<mxfile host="65bd71144e">
    <diagram id="8PBjWqcYu988TwRwB4o7" name="第 1 页">
        <mxGraphModel dx="1673" dy="885" grid="1" gridSize="10" guides="1" tooltips="1" connect="1" arrows="1" fold="1" page="1" pageScale="1" pageWidth="1169" pageHeight="1654" math="0" shadow="0">
            <root>
                <mxCell id="0"/>
                <mxCell id="1" parent="0"/>
                <mxCell id="2" value="VehicleService" style="rounded=1;whiteSpace=wrap;html=1;strokeWidth=2;labelBackgroundColor=none;fillColor=#F2F8FF;arcSize=6;fontStyle=1" parent="1" vertex="1">
                    <mxGeometry x="200" y="110" width="610" height="60" as="geometry"/>
                </mxCell>
                <mxCell id="3" value="VehicleHalManager" style="rounded=1;whiteSpace=wrap;html=1;strokeWidth=2;labelBackgroundColor=none;fillColor=#FEFFF2;arcSize=6;fontStyle=1" parent="1" vertex="1">
                    <mxGeometry x="280" y="240" width="530" height="60" as="geometry"/>
                </mxCell>
                <mxCell id="4" value="VehicleHal" style="rounded=1;whiteSpace=wrap;html=1;strokeWidth=2;labelBackgroundColor=none;fillColor=#F9FFFA;arcSize=6;fontStyle=1" parent="1" vertex="1">
                    <mxGeometry x="360" y="360" width="450" height="60" as="geometry"/>
                </mxCell>
                <mxCell id="5" value="VehiclePropertyStore" style="rounded=1;whiteSpace=wrap;html=1;strokeWidth=2;labelBackgroundColor=none;fillColor=#FFF9F2;arcSize=6;fontStyle=1" parent="1" vertex="1">
                    <mxGeometry x="400" y="480" width="200" height="60" as="geometry"/>
                </mxCell>
                <mxCell id="6" value="VehicleConnector" style="rounded=1;whiteSpace=wrap;html=1;strokeWidth=2;labelBackgroundColor=none;fillColor=#FFF9F2;arcSize=6;fontStyle=1" parent="1" vertex="1">
                    <mxGeometry x="630" y="480" width="180" height="60" as="geometry"/>
                </mxCell>
                <mxCell id="8" value="" style="curved=1;endArrow=classic;html=1;exitX=0.036;exitY=1.017;exitDx=0;exitDy=0;exitPerimeter=0;entryX=0;entryY=0.5;entryDx=0;entryDy=0;strokeWidth=2;labelBackgroundColor=none;strokeColor=#0066CC;" parent="1" source="2" target="5" edge="1">
                    <mxGeometry width="50" height="50" relative="1" as="geometry">
                        <mxPoint x="270" y="560" as="sourcePoint"/>
                        <mxPoint x="320" y="510" as="targetPoint"/>
                        <Array as="points">
                            <mxPoint x="222" y="500"/>
                            <mxPoint x="270" y="510"/>
                        </Array>
                    </mxGeometry>
                </mxCell>
                <mxCell id="9" value="1. 创建VehiclePropertyStore" style="edgeLabel;html=1;align=center;verticalAlign=middle;resizable=0;points=[];labelBackgroundColor=none;" parent="8" vertex="1" connectable="0">
                    <mxGeometry x="0.118" y="10" relative="1" as="geometry">
                        <mxPoint as="offset"/>
                    </mxGeometry>
                </mxCell>
                <mxCell id="10" value="" style="curved=1;endArrow=classic;html=1;entryX=0.5;entryY=0;entryDx=0;entryDy=0;strokeWidth=2;labelBackgroundColor=none;strokeColor=#6600CC;" parent="1" target="6" edge="1">
                    <mxGeometry width="50" height="50" relative="1" as="geometry">
                        <mxPoint x="230" y="170" as="sourcePoint"/>
                        <mxPoint x="160" y="360" as="targetPoint"/>
                        <Array as="points">
                            <mxPoint x="240" y="480"/>
                            <mxPoint x="710" y="450"/>
                        </Array>
                    </mxGeometry>
                </mxCell>
                <mxCell id="11" value="2. 创建VehicleConnector" style="edgeLabel;html=1;align=center;verticalAlign=middle;resizable=0;points=[];labelBackgroundColor=none;" parent="10" vertex="1" connectable="0">
                    <mxGeometry x="0.1862" y="9" relative="1" as="geometry">
                        <mxPoint as="offset"/>
                    </mxGeometry>
                </mxCell>
                <mxCell id="13" value="" style="curved=1;endArrow=classic;html=1;exitX=0.051;exitY=1.05;exitDx=0;exitDy=0;exitPerimeter=0;entryX=0.5;entryY=0;entryDx=0;entryDy=0;strokeWidth=2;labelBackgroundColor=none;strokeColor=#CC0000;" parent="1" target="4" edge="1">
                    <mxGeometry width="50" height="50" relative="1" as="geometry">
                        <mxPoint x="241" y="170" as="sourcePoint"/>
                        <mxPoint x="730" y="477" as="targetPoint"/>
                        <Array as="points">
                            <mxPoint x="230" y="360"/>
                            <mxPoint x="580" y="330"/>
                        </Array>
                    </mxGeometry>
                </mxCell>
                <mxCell id="14" value="3. 创建VehicleHal" style="edgeLabel;html=1;align=center;verticalAlign=middle;resizable=0;points=[];labelBackgroundColor=none;" parent="13" vertex="1" connectable="0">
                    <mxGeometry x="0.1862" y="9" relative="1" as="geometry">
                        <mxPoint as="offset"/>
                    </mxGeometry>
                </mxCell>
                <mxCell id="15" value="" style="curved=1;endArrow=classic;html=1;exitX=1;exitY=0.5;exitDx=0;exitDy=0;entryX=0.5;entryY=1;entryDx=0;entryDy=0;strokeWidth=2;labelBackgroundColor=none;strokeColor=#CC0000;" parent="1" source="4" target="5" edge="1">
                    <mxGeometry width="50" height="50" relative="1" as="geometry">
                        <mxPoint x="941" y="415" as="sourcePoint"/>
                        <mxPoint x="1285" y="605" as="targetPoint"/>
                        <Array as="points">
                            <mxPoint x="870" y="440"/>
                            <mxPoint x="820" y="590"/>
                            <mxPoint x="570" y="610"/>
                        </Array>
                    </mxGeometry>
                </mxCell>
                <mxCell id="16" value="3.1 注册config" style="edgeLabel;html=1;align=center;verticalAlign=middle;resizable=0;points=[];labelBackgroundColor=none;" parent="15" vertex="1" connectable="0">
                    <mxGeometry x="0.1862" y="9" relative="1" as="geometry">
                        <mxPoint as="offset"/>
                    </mxGeometry>
                </mxCell>
                <mxCell id="17" value="" style="curved=1;endArrow=classic;html=1;exitX=0.051;exitY=1.05;exitDx=0;exitDy=0;exitPerimeter=0;entryX=0.5;entryY=0;entryDx=0;entryDy=0;strokeWidth=2;labelBackgroundColor=none;strokeColor=#CC6600;" parent="1" target="3" edge="1">
                    <mxGeometry width="50" height="50" relative="1" as="geometry">
                        <mxPoint x="501" y="170" as="sourcePoint"/>
                        <mxPoint x="845" y="360" as="targetPoint"/>
                        <Array as="points">
                            <mxPoint x="530" y="220"/>
                        </Array>
                    </mxGeometry>
                </mxCell>
                <mxCell id="18" value="4. 创建VehicleHalManager" style="edgeLabel;html=1;align=center;verticalAlign=middle;resizable=0;points=[];labelBackgroundColor=none;" parent="17" vertex="1" connectable="0">
                    <mxGeometry x="0.1862" y="9" relative="1" as="geometry">
                        <mxPoint as="offset"/>
                    </mxGeometry>
                </mxCell>
                <mxCell id="19" value="" style="curved=1;endArrow=classic;html=1;exitX=0.051;exitY=1.05;exitDx=0;exitDy=0;exitPerimeter=0;entryX=0.75;entryY=0;entryDx=0;entryDy=0;strokeWidth=2;labelBackgroundColor=none;strokeColor=#CC6600;" parent="1" target="4" edge="1">
                    <mxGeometry width="50" height="50" relative="1" as="geometry">
                        <mxPoint x="630" y="300" as="sourcePoint"/>
                        <mxPoint x="674" y="370" as="targetPoint"/>
                        <Array as="points">
                            <mxPoint x="659" y="340"/>
                        </Array>
                    </mxGeometry>
                </mxCell>
                <mxCell id="20" value="4.2.1 初始化VehicleHal" style="edgeLabel;html=1;align=center;verticalAlign=middle;resizable=0;points=[];labelBackgroundColor=none;" parent="19" vertex="1" connectable="0">
                    <mxGeometry x="0.1862" y="9" relative="1" as="geometry">
                        <mxPoint x="9" y="-11" as="offset"/>
                    </mxGeometry>
                </mxCell>
                <mxCell id="21" value="" style="curved=1;endArrow=classic;html=1;exitX=1;exitY=0.25;exitDx=0;exitDy=0;entryX=1;entryY=0.75;entryDx=0;entryDy=0;strokeWidth=2;labelBackgroundColor=none;strokeColor=#CC6600;" parent="1" source="3" target="3" edge="1">
                    <mxGeometry width="50" height="50" relative="1" as="geometry">
                        <mxPoint x="850" y="260" as="sourcePoint"/>
                        <mxPoint x="918" y="320" as="targetPoint"/>
                        <Array as="points">
                            <mxPoint x="860" y="240"/>
                            <mxPoint x="860" y="300"/>
                        </Array>
                    </mxGeometry>
                </mxCell>
                <mxCell id="22" value="4.2 初始化" style="edgeLabel;html=1;align=center;verticalAlign=middle;resizable=0;points=[];labelBackgroundColor=none;" parent="21" vertex="1" connectable="0">
                    <mxGeometry x="0.1862" y="9" relative="1" as="geometry">
                        <mxPoint x="9" y="-11" as="offset"/>
                    </mxGeometry>
                </mxCell>
                <mxCell id="23" value="" style="curved=1;endArrow=classic;html=1;exitX=1;exitY=0.5;exitDx=0;exitDy=0;entryX=0.5;entryY=1;entryDx=0;entryDy=0;strokeWidth=2;labelBackgroundColor=none;strokeColor=#CC6600;" parent="1" source="4" target="5" edge="1">
                    <mxGeometry width="50" height="50" relative="1" as="geometry">
                        <mxPoint x="970" y="455" as="sourcePoint"/>
                        <mxPoint x="970" y="485" as="targetPoint"/>
                        <Array as="points">
                            <mxPoint x="940" y="530"/>
                            <mxPoint x="690" y="720"/>
                        </Array>
                    </mxGeometry>
                </mxCell>
                <mxCell id="24" value="4.2.2 写入初始值" style="edgeLabel;html=1;align=center;verticalAlign=middle;resizable=0;points=[];labelBackgroundColor=none;" parent="23" vertex="1" connectable="0">
                    <mxGeometry x="0.1862" y="9" relative="1" as="geometry">
                        <mxPoint x="9" y="-11" as="offset"/>
                    </mxGeometry>
                </mxCell>
                <mxCell id="25" value="SubscriptionManager" style="rounded=1;whiteSpace=wrap;html=1;strokeWidth=2;labelBackgroundColor=none;fillColor=#FFFF99;arcSize=6;fontStyle=1" vertex="1" parent="1">
                    <mxGeometry x="910" y="280" width="220" height="60" as="geometry"/>
                </mxCell>
                <mxCell id="27" value="" style="curved=1;endArrow=classic;html=1;entryX=0.5;entryY=0;entryDx=0;entryDy=0;strokeWidth=2;labelBackgroundColor=none;strokeColor=#CC6600;" edge="1" parent="1" target="25">
                    <mxGeometry width="50" height="50" relative="1" as="geometry">
                        <mxPoint x="810" y="250" as="sourcePoint"/>
                        <mxPoint x="850" y="335" as="targetPoint"/>
                        <Array as="points">
                            <mxPoint x="880" y="210"/>
                            <mxPoint x="1010" y="190"/>
                        </Array>
                    </mxGeometry>
                </mxCell>
                <mxCell id="28" value="4.1&amp;nbsp; 创建SubscriptionManager" style="edgeLabel;html=1;align=center;verticalAlign=middle;resizable=0;points=[];labelBackgroundColor=none;" vertex="1" connectable="0" parent="27">
                    <mxGeometry x="0.1862" y="9" relative="1" as="geometry">
                        <mxPoint x="9" y="-11" as="offset"/>
                    </mxGeometry>
                </mxCell>
            </root>
        </mxGraphModel>
    </diagram>
</mxfile>